<svg width="720" height="340" viewBox="0 0 720 340" fill="none" xmlns="http://www.w3.org/2000/svg">
<path d="M164.729 118.661H187.101C189.573 118.661 191.576 120.664 191.576 123.136V136.559" stroke="white" stroke-opacity="0.2" stroke-width="8.94915"/>
<path d="M164.729 221.576H187.101C189.573 221.576 191.576 219.573 191.576 217.102V203.678" stroke="white" stroke-opacity="0.2" stroke-width="8.94915"/>
<path d="M115.506 118.661H93.133C90.6617 118.661 88.6584 120.664 88.6584 123.136V136.559" stroke="white" stroke-opacity="0.2" stroke-width="8.94915"/>
<path d="M115.506 221.576H93.133C90.6617 221.576 88.6584 219.573 88.6584 217.102V203.678" stroke="white" stroke-opacity="0.2" stroke-width="8.94915"/>
<path d="M108.624 147.873L79.8595 169.446C78.6662 170.341 78.6662 172.131 79.8594 173.025L108.624 194.599C109.395 195.177 110.689 193.993 110.234 193.144C107.625 188.28 104.281 180.281 104.281 171.237C104.281 162.192 107.626 154.192 110.234 149.328C110.69 148.479 109.395 147.295 108.624 147.873Z" fill="white"/>
<path fill-rule="evenodd" clip-rule="evenodd" d="M140.519 194.416C154.333 194.416 165.532 183.217 165.532 169.403C165.532 155.588 154.333 144.39 140.519 144.39C126.705 144.39 115.506 155.588 115.506 169.403C115.506 183.217 126.705 194.416 140.519 194.416ZM141.083 153.7C140.903 152.604 139.327 152.604 139.148 153.7L137.673 162.706C137.324 164.839 135.778 166.582 133.702 167.183L129.945 168.27C129.001 168.544 129.001 169.881 129.945 170.154L133.702 171.242C135.778 171.843 137.324 173.585 137.673 175.719L139.148 184.725C139.327 185.821 140.903 185.821 141.083 184.725L142.557 175.719C142.906 173.585 144.452 171.843 146.529 171.242L150.286 170.154C151.229 169.881 151.229 168.544 150.286 168.27L146.529 167.183C144.452 166.582 142.906 164.839 142.557 162.706L141.083 153.7Z" fill="white"/>
<path d="M172.415 191.268L201.18 169.696C202.373 168.801 202.373 167.011 201.18 166.116L172.415 144.543C171.644 143.965 170.35 145.148 170.805 145.997C173.414 150.862 176.758 158.86 176.758 167.905C176.758 176.949 173.414 184.949 170.805 189.814C170.349 190.663 171.644 191.846 172.415 191.268Z" fill="white"/>
<mask id="path-8-outside-1_1438_2055" maskUnits="userSpaceOnUse" x="245.236" y="127.118" width="404" height="86" fill="black">
<rect fill="white" x="245.236" y="127.118" width="404" height="86"/>
<path d="M271.147 210.031L247.236 153.261H256.257L275.168 199.699L272.995 200.895L293.754 153.261H302.448L277.016 210.031H271.147Z"/>
<path d="M309.675 210.031V153.261H317.826V210.031H309.675ZM313.696 140.972C311.667 140.972 310.109 140.465 309.022 139.45C308.008 138.362 307.501 136.912 307.501 135.1C307.501 133.287 308.044 131.837 309.131 130.749C310.218 129.662 311.74 129.118 313.696 129.118C315.652 129.118 317.174 129.662 318.261 130.749C319.348 131.764 319.891 133.215 319.891 135.1C319.891 136.84 319.348 138.253 318.261 139.341C317.174 140.429 315.652 140.972 313.696 140.972Z"/>
<path d="M347.691 211.118C342.837 211.118 338.489 210.212 334.649 208.399C330.809 206.587 327.766 204.194 325.52 201.222L331.28 196.219C333.381 198.757 335.845 200.678 338.671 201.983C341.569 203.288 344.793 203.94 348.343 203.94C350.155 203.94 351.785 203.759 353.234 203.397C354.683 202.962 355.951 202.345 357.038 201.548C358.125 200.75 358.958 199.808 359.538 198.72C360.118 197.633 360.408 196.436 360.408 195.131C360.408 192.739 359.357 190.745 357.256 189.15C356.314 188.497 354.973 187.845 353.234 187.192C351.495 186.467 349.394 185.779 346.931 185.126C342.873 183.966 339.504 182.806 336.823 181.646C334.142 180.413 332.041 179 330.519 177.405C329.432 176.1 328.599 174.686 328.019 173.163C327.512 171.641 327.259 169.973 327.259 168.161C327.259 165.841 327.73 163.702 328.672 161.744C329.686 159.787 331.063 158.083 332.802 156.633C334.613 155.11 336.714 153.986 339.105 153.261C341.569 152.464 344.213 152.065 347.039 152.065C349.72 152.065 352.365 152.428 354.973 153.153C357.582 153.878 360.009 154.929 362.255 156.306C364.501 157.684 366.421 159.315 368.015 161.2L363.016 166.638C361.639 165.188 360.118 163.883 358.451 162.723C356.785 161.563 355.01 160.657 353.126 160.004C351.314 159.352 349.43 159.025 347.474 159.025C345.735 159.025 344.105 159.243 342.583 159.678C341.134 160.113 339.866 160.729 338.779 161.527C337.765 162.252 336.968 163.158 336.388 164.245C335.881 165.333 335.627 166.529 335.627 167.834C335.627 168.922 335.845 169.901 336.279 170.771C336.714 171.641 337.33 172.402 338.127 173.055C339.141 173.852 340.554 174.613 342.366 175.338C344.25 175.991 346.568 176.68 349.322 177.405C352.51 178.275 355.191 179.181 357.364 180.123C359.611 180.993 361.458 182.045 362.907 183.277C364.864 184.727 366.24 186.395 367.037 188.28C367.907 190.165 368.342 192.304 368.342 194.696C368.342 197.887 367.436 200.714 365.624 203.179C363.885 205.644 361.458 207.602 358.343 209.052C355.227 210.429 351.677 211.118 347.691 211.118Z"/>
<path d="M396.699 211.118C392.352 211.118 388.657 210.248 385.613 208.508C382.643 206.696 380.36 204.085 378.766 200.678C377.245 197.27 376.484 193.029 376.484 187.954V153.261H384.744V186.322C384.744 190.165 385.251 193.391 386.266 196.001C387.352 198.539 388.946 200.46 391.048 201.765C393.221 203.07 395.866 203.723 398.982 203.723C401.373 203.723 403.583 203.324 405.612 202.527C407.64 201.657 409.416 200.497 410.937 199.047C412.459 197.597 413.654 195.893 414.524 193.935C415.393 191.978 415.828 189.911 415.828 187.736V153.261H423.979V210.031H415.937L415.611 198.068L416.915 197.415C416.045 199.953 414.596 202.273 412.567 204.375C410.539 206.406 408.111 208.037 405.285 209.269C402.532 210.502 399.67 211.118 396.699 211.118Z"/>
<path d="M435.221 210.031V153.261H443.372L443.59 166.203L441.959 166.747C442.539 164.572 443.481 162.614 444.785 160.874C446.162 159.062 447.792 157.503 449.676 156.198C451.56 154.893 453.625 153.914 455.871 153.261C458.117 152.536 460.472 152.174 462.936 152.174C465.906 152.174 468.551 152.681 470.87 153.696C473.261 154.639 475.253 156.306 476.847 158.699C478.514 161.019 479.782 164.1 480.651 167.943L478.695 166.964L479.456 165.116C480.18 163.448 481.231 161.853 482.608 160.33C484.057 158.735 485.687 157.322 487.498 156.089C489.382 154.856 491.411 153.914 493.585 153.261C495.831 152.536 498.113 152.174 500.432 152.174C504.417 152.174 507.786 153.044 510.54 154.784C513.293 156.451 515.358 159.025 516.735 162.505C518.184 165.986 518.908 170.408 518.908 175.773V210.031H510.54V176.208C510.54 172.438 510.069 169.357 509.127 166.964C508.185 164.572 506.772 162.795 504.888 161.635C503.077 160.403 500.758 159.787 497.932 159.787C495.469 159.787 493.186 160.222 491.085 161.092C489.056 161.889 487.281 163.049 485.759 164.572C484.31 166.022 483.151 167.689 482.282 169.574C481.485 171.459 481.086 173.49 481.086 175.665V210.031H472.826V176.1C472.826 172.474 472.319 169.466 471.304 167.073C470.362 164.68 468.95 162.868 467.066 161.635C465.182 160.403 462.863 159.787 460.11 159.787C457.719 159.787 455.509 160.222 453.48 161.092C451.451 161.889 449.676 163.013 448.154 164.463C446.705 165.913 445.546 167.581 444.677 169.466C443.879 171.351 443.481 173.381 443.481 175.556V210.031H435.221Z"/>
<path d="M554.979 210.031L584.107 133.903H593.779L622.69 210.031H613.451L594.866 160.657C594.359 159.279 593.779 157.684 593.127 155.871C592.548 153.986 591.896 152.065 591.171 150.108C590.519 148.077 589.867 146.12 589.215 144.235C588.635 142.35 588.092 140.682 587.584 139.232H589.758C589.178 141.045 588.563 142.894 587.91 144.779C587.331 146.591 586.715 148.44 586.063 150.325C585.411 152.138 584.759 153.95 584.107 155.763C583.454 157.575 582.802 159.388 582.15 161.2L563.674 210.031H554.979Z"/>
<path d="M638.759 210.031V133.903H647.236V210.031H638.759Z"/>
<path d="M542.408 204.182C542.408 207.412 539.791 210.031 536.562 210.031C533.334 210.031 530.717 207.412 530.717 204.182C530.717 200.951 533.334 198.333 536.562 198.333C539.791 198.333 542.408 200.951 542.408 204.182Z"/>
</mask>
<path d="M271.147 210.031L247.236 153.261H256.257L275.168 199.699L272.995 200.895L293.754 153.261H302.448L277.016 210.031H271.147Z" fill="white"/>
<path d="M309.675 210.031V153.261H317.826V210.031H309.675ZM313.696 140.972C311.667 140.972 310.109 140.465 309.022 139.45C308.008 138.362 307.501 136.912 307.501 135.1C307.501 133.287 308.044 131.837 309.131 130.749C310.218 129.662 311.74 129.118 313.696 129.118C315.652 129.118 317.174 129.662 318.261 130.749C319.348 131.764 319.891 133.215 319.891 135.1C319.891 136.84 319.348 138.253 318.261 139.341C317.174 140.429 315.652 140.972 313.696 140.972Z" fill="white"/>
<path d="M347.691 211.118C342.837 211.118 338.489 210.212 334.649 208.399C330.809 206.587 327.766 204.194 325.52 201.222L331.28 196.219C333.381 198.757 335.845 200.678 338.671 201.983C341.569 203.288 344.793 203.94 348.343 203.94C350.155 203.94 351.785 203.759 353.234 203.397C354.683 202.962 355.951 202.345 357.038 201.548C358.125 200.75 358.958 199.808 359.538 198.72C360.118 197.633 360.408 196.436 360.408 195.131C360.408 192.739 359.357 190.745 357.256 189.15C356.314 188.497 354.973 187.845 353.234 187.192C351.495 186.467 349.394 185.779 346.931 185.126C342.873 183.966 339.504 182.806 336.823 181.646C334.142 180.413 332.041 179 330.519 177.405C329.432 176.1 328.599 174.686 328.019 173.163C327.512 171.641 327.259 169.973 327.259 168.161C327.259 165.841 327.73 163.702 328.672 161.744C329.686 159.787 331.063 158.083 332.802 156.633C334.613 155.11 336.714 153.986 339.105 153.261C341.569 152.464 344.213 152.065 347.039 152.065C349.72 152.065 352.365 152.428 354.973 153.153C357.582 153.878 360.009 154.929 362.255 156.306C364.501 157.684 366.421 159.315 368.015 161.2L363.016 166.638C361.639 165.188 360.118 163.883 358.451 162.723C356.785 161.563 355.01 160.657 353.126 160.004C351.314 159.352 349.43 159.025 347.474 159.025C345.735 159.025 344.105 159.243 342.583 159.678C341.134 160.113 339.866 160.729 338.779 161.527C337.765 162.252 336.968 163.158 336.388 164.245C335.881 165.333 335.627 166.529 335.627 167.834C335.627 168.922 335.845 169.901 336.279 170.771C336.714 171.641 337.33 172.402 338.127 173.055C339.141 173.852 340.554 174.613 342.366 175.338C344.25 175.991 346.568 176.68 349.322 177.405C352.51 178.275 355.191 179.181 357.364 180.123C359.611 180.993 361.458 182.045 362.907 183.277C364.864 184.727 366.24 186.395 367.037 188.28C367.907 190.165 368.342 192.304 368.342 194.696C368.342 197.887 367.436 200.714 365.624 203.179C363.885 205.644 361.458 207.602 358.343 209.052C355.227 210.429 351.677 211.118 347.691 211.118Z" fill="white"/>
<path d="M396.699 211.118C392.352 211.118 388.657 210.248 385.613 208.508C382.643 206.696 380.36 204.085 378.766 200.678C377.245 197.27 376.484 193.029 376.484 187.954V153.261H384.744V186.322C384.744 190.165 385.251 193.391 386.266 196.001C387.352 198.539 388.946 200.46 391.048 201.765C393.221 203.07 395.866 203.723 398.982 203.723C401.373 203.723 403.583 203.324 405.612 202.527C407.64 201.657 409.416 200.497 410.937 199.047C412.459 197.597 413.654 195.893 414.524 193.935C415.393 191.978 415.828 189.911 415.828 187.736V153.261H423.979V210.031H415.937L415.611 198.068L416.915 197.415C416.045 199.953 414.596 202.273 412.567 204.375C410.539 206.406 408.111 208.037 405.285 209.269C402.532 210.502 399.67 211.118 396.699 211.118Z" fill="white"/>
<path d="M435.221 210.031V153.261H443.372L443.59 166.203L441.959 166.747C442.539 164.572 443.481 162.614 444.785 160.874C446.162 159.062 447.792 157.503 449.676 156.198C451.56 154.893 453.625 153.914 455.871 153.261C458.117 152.536 460.472 152.174 462.936 152.174C465.906 152.174 468.551 152.681 470.87 153.696C473.261 154.639 475.253 156.306 476.847 158.699C478.514 161.019 479.782 164.1 480.651 167.943L478.695 166.964L479.456 165.116C480.18 163.448 481.231 161.853 482.608 160.33C484.057 158.735 485.687 157.322 487.498 156.089C489.382 154.856 491.411 153.914 493.585 153.261C495.831 152.536 498.113 152.174 500.432 152.174C504.417 152.174 507.786 153.044 510.54 154.784C513.293 156.451 515.358 159.025 516.735 162.505C518.184 165.986 518.908 170.408 518.908 175.773V210.031H510.54V176.208C510.54 172.438 510.069 169.357 509.127 166.964C508.185 164.572 506.772 162.795 504.888 161.635C503.077 160.403 500.758 159.787 497.932 159.787C495.469 159.787 493.186 160.222 491.085 161.092C489.056 161.889 487.281 163.049 485.759 164.572C484.31 166.022 483.151 167.689 482.282 169.574C481.485 171.459 481.086 173.49 481.086 175.665V210.031H472.826V176.1C472.826 172.474 472.319 169.466 471.304 167.073C470.362 164.68 468.95 162.868 467.066 161.635C465.182 160.403 462.863 159.787 460.11 159.787C457.719 159.787 455.509 160.222 453.48 161.092C451.451 161.889 449.676 163.013 448.154 164.463C446.705 165.913 445.546 167.581 444.677 169.466C443.879 171.351 443.481 173.381 443.481 175.556V210.031H435.221Z" fill="white"/>
<path d="M554.979 210.031L584.107 133.903H593.779L622.69 210.031H613.451L594.866 160.657C594.359 159.279 593.779 157.684 593.127 155.871C592.548 153.986 591.896 152.065 591.171 150.108C590.519 148.077 589.867 146.12 589.215 144.235C588.635 142.35 588.092 140.682 587.584 139.232H589.758C589.178 141.045 588.563 142.894 587.91 144.779C587.331 146.591 586.715 148.44 586.063 150.325C585.411 152.138 584.759 153.95 584.107 155.763C583.454 157.575 582.802 159.388 582.15 161.2L563.674 210.031H554.979Z" fill="white"/>
<path d="M638.759 210.031V133.903H647.236V210.031H638.759Z" fill="white"/>
<path d="M542.408 204.182C542.408 207.412 539.791 210.031 536.562 210.031C533.334 210.031 530.717 207.412 530.717 204.182C530.717 200.951 533.334 198.333 536.562 198.333C539.791 198.333 542.408 200.951 542.408 204.182Z" fill="white"/>
<path d="M271.147 210.031L247.236 153.261H256.257L275.168 199.699L272.995 200.895L293.754 153.261H302.448L277.016 210.031H271.147Z" stroke="white" stroke-width="2.4" mask="url(#path-8-outside-1_1438_2055)"/>
<path d="M309.675 210.031V153.261H317.826V210.031H309.675ZM313.696 140.972C311.667 140.972 310.109 140.465 309.022 139.45C308.008 138.362 307.501 136.912 307.501 135.1C307.501 133.287 308.044 131.837 309.131 130.749C310.218 129.662 311.74 129.118 313.696 129.118C315.652 129.118 317.174 129.662 318.261 130.749C319.348 131.764 319.891 133.215 319.891 135.1C319.891 136.84 319.348 138.253 318.261 139.341C317.174 140.429 315.652 140.972 313.696 140.972Z" stroke="white" stroke-width="2.4" mask="url(#path-8-outside-1_1438_2055)"/>
<path d="M347.691 211.118C342.837 211.118 338.489 210.212 334.649 208.399C330.809 206.587 327.766 204.194 325.52 201.222L331.28 196.219C333.381 198.757 335.845 200.678 338.671 201.983C341.569 203.288 344.793 203.94 348.343 203.94C350.155 203.94 351.785 203.759 353.234 203.397C354.683 202.962 355.951 202.345 357.038 201.548C358.125 200.75 358.958 199.808 359.538 198.72C360.118 197.633 360.408 196.436 360.408 195.131C360.408 192.739 359.357 190.745 357.256 189.15C356.314 188.497 354.973 187.845 353.234 187.192C351.495 186.467 349.394 185.779 346.931 185.126C342.873 183.966 339.504 182.806 336.823 181.646C334.142 180.413 332.041 179 330.519 177.405C329.432 176.1 328.599 174.686 328.019 173.163C327.512 171.641 327.259 169.973 327.259 168.161C327.259 165.841 327.73 163.702 328.672 161.744C329.686 159.787 331.063 158.083 332.802 156.633C334.613 155.11 336.714 153.986 339.105 153.261C341.569 152.464 344.213 152.065 347.039 152.065C349.72 152.065 352.365 152.428 354.973 153.153C357.582 153.878 360.009 154.929 362.255 156.306C364.501 157.684 366.421 159.315 368.015 161.2L363.016 166.638C361.639 165.188 360.118 163.883 358.451 162.723C356.785 161.563 355.01 160.657 353.126 160.004C351.314 159.352 349.43 159.025 347.474 159.025C345.735 159.025 344.105 159.243 342.583 159.678C341.134 160.113 339.866 160.729 338.779 161.527C337.765 162.252 336.968 163.158 336.388 164.245C335.881 165.333 335.627 166.529 335.627 167.834C335.627 168.922 335.845 169.901 336.279 170.771C336.714 171.641 337.33 172.402 338.127 173.055C339.141 173.852 340.554 174.613 342.366 175.338C344.25 175.991 346.568 176.68 349.322 177.405C352.51 178.275 355.191 179.181 357.364 180.123C359.611 180.993 361.458 182.045 362.907 183.277C364.864 184.727 366.24 186.395 367.037 188.28C367.907 190.165 368.342 192.304 368.342 194.696C368.342 197.887 367.436 200.714 365.624 203.179C363.885 205.644 361.458 207.602 358.343 209.052C355.227 210.429 351.677 211.118 347.691 211.118Z" stroke="white" stroke-width="2.4" mask="url(#path-8-outside-1_1438_2055)"/>
<path d="M396.699 211.118C392.352 211.118 388.657 210.248 385.613 208.508C382.643 206.696 380.36 204.085 378.766 200.678C377.245 197.27 376.484 193.029 376.484 187.954V153.261H384.744V186.322C384.744 190.165 385.251 193.391 386.266 196.001C387.352 198.539 388.946 200.46 391.048 201.765C393.221 203.07 395.866 203.723 398.982 203.723C401.373 203.723 403.583 203.324 405.612 202.527C407.64 201.657 409.416 200.497 410.937 199.047C412.459 197.597 413.654 195.893 414.524 193.935C415.393 191.978 415.828 189.911 415.828 187.736V153.261H423.979V210.031H415.937L415.611 198.068L416.915 197.415C416.045 199.953 414.596 202.273 412.567 204.375C410.539 206.406 408.111 208.037 405.285 209.269C402.532 210.502 399.67 211.118 396.699 211.118Z" stroke="white" stroke-width="2.4" mask="url(#path-8-outside-1_1438_2055)"/>
<path d="M435.221 210.031V153.261H443.372L443.59 166.203L441.959 166.747C442.539 164.572 443.481 162.614 444.785 160.874C446.162 159.062 447.792 157.503 449.676 156.198C451.56 154.893 453.625 153.914 455.871 153.261C458.117 152.536 460.472 152.174 462.936 152.174C465.906 152.174 468.551 152.681 470.87 153.696C473.261 154.639 475.253 156.306 476.847 158.699C478.514 161.019 479.782 164.1 480.651 167.943L478.695 166.964L479.456 165.116C480.18 163.448 481.231 161.853 482.608 160.33C484.057 158.735 485.687 157.322 487.498 156.089C489.382 154.856 491.411 153.914 493.585 153.261C495.831 152.536 498.113 152.174 500.432 152.174C504.417 152.174 507.786 153.044 510.54 154.784C513.293 156.451 515.358 159.025 516.735 162.505C518.184 165.986 518.908 170.408 518.908 175.773V210.031H510.54V176.208C510.54 172.438 510.069 169.357 509.127 166.964C508.185 164.572 506.772 162.795 504.888 161.635C503.077 160.403 500.758 159.787 497.932 159.787C495.469 159.787 493.186 160.222 491.085 161.092C489.056 161.889 487.281 163.049 485.759 164.572C484.31 166.022 483.151 167.689 482.282 169.574C481.485 171.459 481.086 173.49 481.086 175.665V210.031H472.826V176.1C472.826 172.474 472.319 169.466 471.304 167.073C470.362 164.68 468.95 162.868 467.066 161.635C465.182 160.403 462.863 159.787 460.11 159.787C457.719 159.787 455.509 160.222 453.48 161.092C451.451 161.889 449.676 163.013 448.154 164.463C446.705 165.913 445.546 167.581 444.677 169.466C443.879 171.351 443.481 173.381 443.481 175.556V210.031H435.221Z" stroke="white" stroke-width="2.4" mask="url(#path-8-outside-1_1438_2055)"/>
<path d="M554.979 210.031L584.107 133.903H593.779L622.69 210.031H613.451L594.866 160.657C594.359 159.279 593.779 157.684 593.127 155.871C592.548 153.986 591.896 152.065 591.171 150.108C590.519 148.077 589.867 146.12 589.215 144.235C588.635 142.35 588.092 140.682 587.584 139.232H589.758C589.178 141.045 588.563 142.894 587.91 144.779C587.331 146.591 586.715 148.44 586.063 150.325C585.411 152.138 584.759 153.95 584.107 155.763C583.454 157.575 582.802 159.388 582.15 161.2L563.674 210.031H554.979Z" stroke="white" stroke-width="2.4" mask="url(#path-8-outside-1_1438_2055)"/>
<path d="M638.759 210.031V133.903H647.236V210.031H638.759Z" stroke="white" stroke-width="2.4" mask="url(#path-8-outside-1_1438_2055)"/>
<path d="M542.408 204.182C542.408 207.412 539.791 210.031 536.562 210.031C533.334 210.031 530.717 207.412 530.717 204.182C530.717 200.951 533.334 198.333 536.562 198.333C539.791 198.333 542.408 200.951 542.408 204.182Z" stroke="white" stroke-width="2.4" mask="url(#path-8-outside-1_1438_2055)"/>
</svg>
